<svg xmlns="http://www.w3.org/2000/svg" xmlns:xlink="http://www.w3.org/1999/xlink" width="500" zoomAndPan="magnify" viewBox="0 0 375 374.999991" height="500" preserveAspectRatio="xMidYMid meet" version="1.0"><defs><g/><clipPath id="81e06c44d4"><path d="M 143 42.355469 L 237 42.355469 L 237 197 L 143 197 Z M 143 42.355469 " clip-rule="nonzero"/></clipPath><clipPath id="8cef7c2b91"><path d="M 163 42.355469 L 228 42.355469 L 228 197 L 163 197 Z M 163 42.355469 " clip-rule="nonzero"/></clipPath><clipPath id="5c4817d7fd"><path d="M 105.800781 64.085938 L 156 64.085938 L 156 250.855469 L 105.800781 250.855469 Z M 105.800781 64.085938 " clip-rule="nonzero"/></clipPath><clipPath id="b79a81a855"><path d="M 222.679688 69.480469 L 290.097656 69.480469 L 290.097656 245.558594 L 222.679688 245.558594 Z M 222.679688 69.480469 " clip-rule="nonzero"/></clipPath><clipPath id="3101d16cc0"><path d="M 192 201 L 230 201 L 230 241.273438 L 192 241.273438 Z M 192 201 " clip-rule="nonzero"/></clipPath><clipPath id="766f0741f6"><path d="M 154 200.023438 L 191 200.023438 L 191 240 L 154 240 Z M 154 200.023438 " clip-rule="nonzero"/></clipPath></defs><g clip-path="url(#81e06c44d4)"><path fill="#000000" d="M 234.382812 120.445312 C 232.660156 127.933594 230.433594 135.300781 228.878906 142.832031 C 228.226562 146 227.691406 149.199219 227.378906 152.421875 C 227.316406 153.039062 227.261719 153.65625 227.21875 154.273438 C 226.925781 158.421875 227.105469 162.570312 227.105469 166.722656 C 227.097656 173.734375 226.421875 181.316406 222.050781 187.109375 C 220.148438 189.621094 217.570312 191.652344 214.507812 192.515625 C 211.398438 193.394531 208.476562 192.722656 205.855469 190.894531 C 203.378906 189.167969 201.117188 187.082031 197.933594 187 C 195.480469 186.941406 193.144531 187.933594 191.023438 189.078125 C 186.636719 191.449219 182.515625 195.09375 177.460938 195.929688 C 174.863281 196.355469 172.242188 195.832031 170.078125 194.296875 C 167.679688 192.59375 166.003906 190 165.078125 187.230469 C 163.847656 183.566406 163.789062 179.644531 163.703125 175.824219 C 163.628906 172.414062 163.503906 169.011719 163.25 165.613281 C 163.210938 165.132812 163.171875 164.648438 163.128906 164.167969 C 162.441406 156.355469 160.941406 148.527344 157.621094 141.378906 C 155.980469 137.859375 154.042969 134.480469 152.828125 130.777344 C 151.597656 127.015625 150.972656 123.09375 150.292969 119.210938 C 148.832031 110.835938 147.375 102.464844 145.914062 94.09375 C 145.546875 92 145.183594 89.910156 144.816406 87.816406 C 144.714844 87.230469 144.605469 86.644531 144.496094 86.058594 C 144.320312 86.199219 143.992188 86.128906 144 85.835938 C 144.015625 85.15625 144.0625 84.476562 144.125 83.800781 C 144.070312 83.40625 144.023438 83.015625 143.988281 82.625 C 143.796875 80.457031 143.980469 77.898438 145.632812 76.394531 C 145.710938 76.160156 145.78125 75.921875 145.859375 75.6875 C 148.175781 68.929688 152.359375 62.972656 157.289062 57.875 C 159.125 55.980469 161.058594 54.195312 163.0625 52.492188 C 163.921875 51.757812 164.792969 51.039062 165.671875 50.335938 C 167.09375 49.191406 168.535156 48.078125 170 46.984375 C 171.484375 45.867188 172.964844 44.691406 174.59375 43.785156 C 176.054688 42.972656 177.710938 42.363281 179.40625 42.53125 C 180.988281 42.691406 182.328125 43.539062 183.660156 44.339844 C 185.191406 45.261719 186.703125 45.9375 188.53125 45.730469 C 190.257812 45.53125 191.875 44.796875 193.519531 44.285156 C 195.0625 43.804688 196.617188 43.535156 198.222656 43.816406 C 199.972656 44.125 201.609375 44.957031 203.175781 45.761719 C 205.382812 46.902344 207.519531 48.183594 209.558594 49.601562 C 210.089844 49.964844 210.609375 50.335938 211.128906 50.71875 C 221.1875 58.160156 228.886719 68.679688 233.171875 80.4375 C 235.316406 86.316406 236.589844 92.515625 236.875 98.769531 C 237.199219 106.078125 236.019531 113.347656 234.382812 120.445312 " fill-opacity="1" fill-rule="nonzero"/></g><path fill="#000000" d="M 210.464844 124.5625 C 207.828125 121.375 203.832031 119.714844 199.816406 119.195312 C 197.414062 118.882812 194.980469 118.949219 192.570312 119.167969 C 190.210938 119.386719 187.839844 119.691406 185.539062 120.257812 C 181.5 121.25 177.488281 123.292969 175.28125 126.972656 C 173.375 130.144531 173.3125 134.429688 175.761719 137.34375 C 177.910156 139.898438 181.925781 140.402344 184.597656 138.34375 C 185.203125 137.878906 185.695312 137.292969 186.046875 136.609375 C 186.148438 136.410156 186.019531 136.226562 185.859375 136.164062 C 185.84375 136.066406 185.8125 135.964844 185.753906 135.878906 C 185.542969 135.53125 185.132812 135.480469 184.875 135.199219 C 184.59375 134.894531 184.773438 134.414062 184.972656 134.113281 C 185.742188 132.957031 187.539062 132.835938 188.675781 133.441406 C 189.941406 134.117188 190.347656 135.605469 189.894531 136.921875 C 189.671875 137.5625 189.242188 138.132812 188.652344 138.472656 C 188.085938 138.800781 187.433594 138.960938 186.824219 139.191406 C 186.269531 139.398438 185.675781 139.640625 185.277344 140.097656 C 184.847656 140.589844 184.707031 141.269531 184.914062 141.894531 C 185.1875 142.703125 185.875 143.28125 186.496094 143.824219 C 187.253906 144.492188 188.03125 145.136719 188.828125 145.757812 C 190.269531 146.878906 191.761719 148.066406 193.476562 148.730469 C 195.09375 149.363281 196.855469 149.289062 198.457031 148.632812 C 202.359375 147.027344 204.164062 143.058594 205.707031 139.40625 C 205.773438 139.242188 205.769531 139.003906 205.578125 138.917969 C 203.773438 138.101562 201.863281 137.234375 200.574219 135.664062 C 199.550781 134.410156 199.175781 132.597656 199.867188 131.089844 C 200.175781 130.414062 200.710938 129.855469 201.429688 129.628906 C 202.5 129.289062 203.726562 129.59375 204.785156 129.875 C 205.53125 130.078125 206.6875 130.476562 206.8125 131.382812 C 206.898438 132 206.324219 133.058594 205.621094 132.496094 C 205.285156 132.226562 205.09375 131.800781 204.789062 131.496094 C 204.503906 131.214844 204.148438 131.039062 203.753906 130.988281 C 202.988281 130.890625 202.1875 131.261719 201.695312 131.847656 C 200.355469 133.429688 201.570312 135.691406 202.960938 136.765625 C 204.378906 137.863281 206.277344 138.242188 208.023438 137.894531 C 209.78125 137.542969 211.253906 136.375 212.078125 134.792969 C 213.832031 131.425781 212.777344 127.363281 210.464844 124.5625 " fill-opacity="1" fill-rule="nonzero"/><g clip-path="url(#8cef7c2b91)"><path fill="#5e17eb" d="M 227.21875 154.273438 C 226.925781 158.421875 227.105469 162.570312 227.105469 166.722656 C 227.097656 173.734375 226.421875 181.316406 222.050781 187.109375 C 220.148438 189.621094 217.570312 191.652344 214.507812 192.515625 C 211.398438 193.394531 208.476562 192.722656 205.855469 190.894531 C 203.378906 189.167969 201.117188 187.082031 197.933594 187 C 195.480469 186.941406 193.144531 187.933594 191.023438 189.078125 C 186.636719 191.449219 182.515625 195.09375 177.460938 195.929688 C 174.863281 196.355469 172.242188 195.832031 170.078125 194.296875 C 167.679688 192.59375 166.003906 190 165.078125 187.230469 C 163.847656 183.566406 163.789062 179.644531 163.703125 175.824219 C 163.628906 172.414062 163.503906 169.011719 163.25 165.613281 C 163.539062 164.609375 163.804688 163.59375 164.039062 162.574219 C 165.945312 154.273438 165.253906 145.699219 165.085938 137.269531 C 165.003906 133.0625 165.042969 128.839844 165.582031 124.660156 C 166.109375 120.589844 167.152344 116.625 168.4375 112.734375 C 171.058594 104.792969 174.605469 97.136719 176.199219 88.886719 C 177.734375 80.90625 177.074219 72.667969 172.601562 65.710938 C 171.570312 64.105469 170.378906 62.628906 169.046875 61.265625 C 167.746094 59.929688 166.363281 58.667969 165.222656 57.1875 C 164.171875 55.839844 163.347656 54.1875 163.0625 52.492188 C 163.921875 51.757812 164.792969 51.039062 165.671875 50.335938 C 167.09375 49.191406 168.535156 48.078125 170 46.984375 C 171.484375 45.867188 172.964844 44.691406 174.59375 43.785156 C 176.054688 42.972656 177.710938 42.363281 179.40625 42.53125 C 180.988281 42.691406 182.328125 43.539062 183.660156 44.339844 C 185.191406 45.261719 186.703125 45.9375 188.53125 45.730469 C 190.257812 45.53125 191.875 44.796875 193.519531 44.285156 C 195.0625 43.804688 196.617188 43.535156 198.222656 43.816406 C 199.972656 44.125 201.609375 44.957031 203.175781 45.761719 C 205.382812 46.902344 207.519531 48.183594 209.558594 49.601562 C 208.960938 51.078125 208.027344 52.429688 206.921875 53.640625 C 204.730469 56.035156 201.964844 57.960938 200.226562 60.753906 C 198.203125 64.007812 197.777344 67.972656 198.015625 71.730469 C 198.886719 85.738281 207.890625 97.464844 214.238281 109.429688 C 215.835938 112.445312 217.3125 115.53125 218.53125 118.71875 C 219.917969 122.355469 220.808594 126.109375 221.570312 129.921875 C 222.40625 134.121094 223.390625 138.238281 224.625 142.339844 C 225.632812 145.683594 226.605469 149.023438 227.378906 152.421875 C 227.316406 153.039062 227.261719 153.65625 227.21875 154.273438 " fill-opacity="1" fill-rule="nonzero"/></g><g clip-path="url(#5c4817d7fd)"><path fill="#000000" d="M 155.644531 171.03125 C 155.425781 167.699219 154.910156 164.386719 154.246094 161.117188 C 153.472656 157.3125 152.5 153.53125 152.035156 149.671875 C 151.5625 145.722656 151.921875 141.933594 152.527344 138.019531 C 153.101562 134.320312 153.414062 130.671875 153.113281 126.925781 C 152.527344 119.632812 150.347656 112.613281 148.960938 105.460938 C 148.253906 101.824219 147.773438 98.140625 147.820312 94.429688 C 147.871094 90.546875 148.457031 86.695312 149.335938 82.917969 C 149.785156 80.996094 150.304688 79.085938 150.875 77.191406 C 151.390625 75.472656 151.957031 73.757812 152.1875 71.964844 C 152.539062 69.183594 151.839844 66.238281 149.152344 64.929688 C 148.082031 64.40625 146.847656 64.207031 145.75 64.46875 C 145.636719 64.398438 145.488281 64.371094 145.320312 64.417969 C 139.695312 65.992188 136.550781 71.554688 134.90625 76.789062 C 133.890625 80.007812 133.28125 83.332031 132.257812 86.546875 C 131.191406 89.90625 129.589844 92.855469 127.121094 95.382812 C 124.753906 97.808594 122.238281 99.996094 120.269531 102.789062 C 118.355469 105.511719 116.886719 108.554688 115.925781 111.746094 C 114.957031 114.945312 114.511719 118.296875 114.609375 121.640625 C 114.722656 125.503906 115.183594 129.289062 114.789062 133.15625 C 114.039062 140.480469 111.507812 147.511719 111.074219 154.882812 C 110.84375 158.835938 111.539062 162.695312 111.8125 166.621094 C 112.085938 170.582031 111.386719 174.28125 110.234375 178.050781 C 109.136719 181.640625 107.972656 185.179688 107.222656 188.867188 C 106.480469 192.515625 106.023438 196.226562 105.863281 199.945312 C 105.699219 203.773438 105.847656 207.613281 106.3125 211.417969 C 106.703125 214.601562 107.179688 217.882812 108.335938 220.890625 C 109.277344 223.335938 110.75 225.789062 113.160156 227.011719 C 114.640625 227.761719 116.257812 227.753906 117.816406 228.226562 C 119.261719 228.664062 120.292969 229.746094 120.988281 231.058594 C 122.558594 234.023438 122.136719 237.46875 122.453125 240.691406 C 122.746094 243.625 123.714844 246.328125 126.015625 248.261719 C 130.046875 251.652344 136.070312 251.859375 139.992188 248.210938 C 144.425781 244.09375 145.113281 237.222656 145.46875 231.535156 C 145.71875 227.570312 145.667969 223.582031 145.320312 219.621094 C 144.988281 215.867188 144.199219 212.167969 143.90625 208.414062 C 143.613281 204.660156 144.082031 201.097656 146.132812 197.878906 C 147.929688 195.0625 150.351562 192.707031 152.035156 189.8125 C 155.332031 184.167969 156.066406 177.457031 155.644531 171.03125 " fill-opacity="1" fill-rule="nonzero"/></g><g clip-path="url(#b79a81a855)"><path fill="#000000" d="M 289.582031 201.984375 C 288.839844 198.636719 287.390625 195.492188 285.761719 192.488281 C 282.652344 186.761719 278.855469 181.449219 275.300781 175.996094 C 271.738281 170.523438 268.375 164.855469 266.292969 158.628906 C 264.015625 151.816406 263.375 144.621094 262.78125 137.503906 C 261.785156 125.570312 260.738281 112.570312 253.097656 102.753906 C 251.308594 100.453125 249.195312 98.496094 246.8125 96.824219 C 244.101562 94.925781 241.59375 93.109375 239.742188 90.308594 C 238.042969 87.738281 236.949219 84.824219 236.082031 81.882812 C 235.335938 79.335938 234.820312 76.710938 233.59375 74.339844 C 232.578125 72.375 231.074219 70.753906 228.894531 70.191406 C 228.660156 69.585938 227.59375 69.738281 227.628906 70.503906 C 227.957031 77.921875 228.574219 85.3125 229.582031 92.671875 C 230.089844 96.402344 230.679688 100.125 231.335938 103.835938 C 231.980469 107.457031 232.808594 111.046875 233.453125 114.671875 C 234.089844 118.246094 234.515625 121.90625 234.136719 125.539062 C 233.808594 128.714844 232.96875 131.8125 232.042969 134.863281 C 230.171875 141.050781 228.074219 147.175781 228.605469 153.742188 C 229.148438 160.445312 231.789062 167.125 230.777344 173.90625 C 229.890625 179.835938 225.816406 184.511719 223.898438 190.070312 C 222.910156 192.933594 222.621094 195.917969 223.207031 198.90625 C 223.835938 202.121094 225.269531 205.101562 226.980469 207.871094 C 228.792969 210.800781 230.921875 213.523438 233.027344 216.246094 C 235.25 219.121094 237.507812 221.964844 239.804688 224.777344 C 242.101562 227.59375 244.4375 230.375 246.808594 233.125 C 248.921875 235.574219 251.050781 238.042969 253.515625 240.152344 C 257.996094 243.980469 264.316406 246.722656 270.167969 244.492188 C 275.847656 242.328125 279.148438 236.109375 281.894531 231.0625 C 285.101562 225.171875 287.9375 218.75 289.453125 212.1875 C 290.234375 208.800781 290.339844 205.386719 289.582031 201.984375 " fill-opacity="1" fill-rule="nonzero"/></g><path fill="#000000" d="M 217.039062 137.90625 C 215.550781 134.378906 212.179688 132.214844 208.65625 131.078125 C 205.109375 129.933594 201.332031 129.730469 197.640625 130.035156 C 194.027344 130.332031 190.375 130.707031 186.867188 131.675781 C 183.515625 132.597656 179.890625 134.113281 177.898438 137.132812 C 175.464844 140.828125 176.625 145.414062 180.074219 148 C 181.921875 149.390625 184.355469 149.921875 186.621094 149.414062 C 187.605469 149.199219 188.457031 148.664062 188.773438 147.652344 C 189.140625 146.472656 188.480469 144.285156 190.46875 144.570312 C 193.757812 145.042969 192.203125 150.503906 189.859375 151.25 C 187.921875 151.867188 185.3125 150.386719 183.382812 150.113281 C 182.667969 150.011719 182.074219 150.386719 182.023438 151.152344 C 181.828125 154.363281 185.433594 156.53125 187.710938 158.109375 C 190.261719 159.875 193.378906 162.390625 196.660156 162.636719 C 196.609375 164.332031 196.4375 166.027344 196.378906 167.722656 C 196.34375 168.730469 196.34375 169.738281 196.441406 170.742188 C 196.488281 171.25 196.558594 171.761719 196.65625 172.261719 C 196.660156 172.277344 196.664062 172.296875 196.667969 172.3125 C 194.898438 172.917969 193.304688 173.921875 192.019531 175.292969 C 190.78125 176.609375 189.84375 178.167969 189.0625 179.789062 C 188.242188 181.484375 187.582031 183.257812 186.863281 184.996094 C 186.824219 185.082031 186.789062 185.171875 186.75 185.261719 C 186.722656 185.328125 186.699219 185.378906 186.679688 185.433594 C 186.585938 185.652344 186.488281 185.871094 186.394531 186.085938 C 186.214844 186.492188 186.027344 186.894531 185.832031 187.296875 C 185.449219 188.078125 185.050781 188.847656 184.570312 189.574219 C 184.441406 189.777344 184.304688 189.972656 184.164062 190.167969 C 184.136719 190.207031 183.992188 190.398438 183.992188 190.398438 C 183.9375 190.46875 183.878906 190.539062 183.824219 190.609375 C 183.515625 190.988281 183.199219 191.363281 182.855469 191.703125 C 182.683594 191.867188 182.507812 192.027344 182.328125 192.183594 C 182.238281 192.257812 182.148438 192.335938 182.054688 192.414062 C 182.015625 192.445312 181.972656 192.480469 181.933594 192.515625 C 181.914062 192.527344 181.90625 192.535156 181.898438 192.542969 C 181.476562 192.859375 181.046875 193.136719 180.617188 193.40625 C 179.945312 193.824219 180.371094 195.039062 181.183594 194.746094 C 184.667969 193.476562 186.679688 190.023438 188.113281 186.804688 C 188.5 185.933594 188.867188 185.050781 189.230469 184.167969 C 189.316406 183.957031 189.40625 183.75 189.492188 183.539062 C 189.53125 183.449219 189.566406 183.355469 189.605469 183.265625 C 189.609375 183.253906 189.625 183.21875 189.636719 183.1875 C 189.65625 183.148438 189.683594 183.074219 189.691406 183.0625 C 189.867188 182.648438 190.050781 182.238281 190.234375 181.828125 C 190.605469 181.023438 190.988281 180.222656 191.421875 179.449219 C 191.640625 179.058594 191.871094 178.675781 192.117188 178.300781 C 192.230469 178.136719 192.34375 177.96875 192.460938 177.804688 C 192.523438 177.71875 192.585938 177.632812 192.648438 177.542969 C 192.671875 177.515625 192.695312 177.484375 192.71875 177.453125 C 192.730469 177.4375 192.746094 177.421875 192.765625 177.394531 C 193.066406 177.023438 193.382812 176.660156 193.722656 176.324219 C 193.894531 176.15625 194.070312 175.992188 194.25 175.835938 C 194.34375 175.757812 194.4375 175.683594 194.527344 175.605469 C 194.535156 175.597656 194.550781 175.589844 194.5625 175.578125 C 194.605469 175.546875 194.644531 175.515625 194.683594 175.488281 C 195.082031 175.191406 195.507812 174.929688 195.945312 174.699219 C 196.058594 174.636719 196.171875 174.582031 196.289062 174.527344 C 196.339844 174.5 196.390625 174.476562 196.441406 174.453125 C 196.453125 174.449219 196.53125 174.414062 196.570312 174.394531 C 196.601562 174.382812 196.644531 174.367188 196.652344 174.359375 C 196.722656 174.332031 196.789062 174.308594 196.859375 174.28125 C 197 174.226562 197.140625 174.179688 197.28125 174.128906 C 197.378906 174.097656 197.46875 174.046875 197.550781 173.992188 C 197.660156 174.019531 197.773438 174.027344 197.886719 174.011719 C 197.953125 174.105469 198.042969 174.191406 198.160156 174.261719 C 199.246094 174.917969 200.226562 175.59375 201.132812 176.433594 C 201.964844 177.207031 202.648438 178.019531 203.25 178.894531 C 203.949219 179.925781 204.550781 181.019531 205.121094 182.128906 C 205.84375 183.53125 206.5625 184.941406 207.269531 186.355469 C 208.066406 187.945312 208.847656 189.550781 209.53125 191.195312 C 209.699219 191.601562 210.066406 191.894531 210.53125 191.765625 C 210.921875 191.65625 211.261719 191.175781 211.097656 190.761719 C 209.878906 187.648438 208.390625 184.648438 206.875 181.667969 C 205.734375 179.429688 204.484375 177.21875 202.675781 175.441406 C 201.59375 174.382812 200.363281 173.484375 199.074219 172.699219 C 198.839844 172.554688 198.613281 172.535156 198.410156 172.589844 C 198.328125 172.304688 198.234375 172.023438 198.179688 171.730469 C 198.101562 171.328125 198.050781 170.921875 198.019531 170.515625 C 197.945312 169.527344 197.953125 168.53125 197.988281 167.539062 C 198.042969 165.875 198.207031 164.21875 198.253906 162.554688 C 198.667969 162.453125 199.035156 162.246094 199.265625 161.925781 C 203.914062 160.292969 208.136719 157.332031 211.3125 153.570312 C 211.878906 152.898438 211.789062 151.574219 210.742188 151.390625 C 208.757812 151.046875 204.988281 150.574219 204.746094 147.996094 C 204.601562 146.464844 205.621094 144.292969 206.929688 143.496094 C 207.617188 143.078125 208.34375 143.042969 208.917969 143.292969 C 207.25 143.703125 205.761719 145.410156 205.976562 147.402344 C 206.191406 149.382812 208.148438 150.878906 210 151.222656 C 211.972656 151.589844 213.835938 150.597656 215.132812 149.15625 C 217.871094 146.121094 218.632812 141.675781 217.039062 137.90625 " fill-opacity="1" fill-rule="nonzero"/><path fill="#000000" d="M 171.03125 68.28125 C 170.222656 67.285156 168.953125 66.910156 167.726562 67.25 C 166.335938 67.632812 165.363281 68.714844 164.511719 69.820312 C 163.664062 70.921875 162.800781 72.003906 161.777344 72.949219 C 160.644531 73.996094 159.339844 74.863281 157.871094 75.359375 C 157.292969 75.554688 157.542969 76.476562 158.125 76.28125 C 160.546875 75.472656 162.539062 73.789062 164.15625 71.851562 C 164.992188 70.851562 165.691406 69.675781 166.71875 68.855469 C 167.605469 68.148438 168.921875 67.761719 169.898438 68.523438 C 170.882812 69.289062 171.011719 70.558594 171.421875 71.648438 C 171.585938 72.085938 172.339844 72.074219 172.304688 71.527344 C 172.222656 70.40625 171.738281 69.152344 171.03125 68.28125 " fill-opacity="1" fill-rule="nonzero"/><path fill="#000000" d="M 169.015625 84.128906 C 169.007812 84.09375 168.992188 84.054688 168.972656 84.019531 C 168.726562 83.453125 168.328125 82.921875 167.945312 82.511719 C 167.445312 81.976562 166.992188 81.496094 166.691406 80.816406 C 166.382812 80.113281 166.148438 79.410156 165.632812 78.824219 C 165.109375 78.234375 164.359375 77.914062 163.574219 78.035156 C 162.785156 78.15625 162.023438 78.582031 161.289062 78.886719 C 160.550781 79.195312 159.796875 79.488281 159.105469 79.890625 C 158.617188 80.171875 158.167969 80.519531 157.753906 80.90625 C 157.640625 80.929688 157.527344 80.992188 157.441406 81.113281 C 157.375 81.210938 157.316406 81.308594 157.253906 81.40625 C 156.75 81.953125 156.277344 82.53125 155.828125 83.121094 C 155.386719 83.699219 154.984375 84.339844 154.863281 85.070312 C 154.605469 86.621094 155.527344 87.921875 156.53125 89.003906 C 157.082031 89.597656 157.652344 90.175781 158.214844 90.761719 C 158.746094 91.316406 159.292969 91.851562 159.929688 92.289062 C 160.535156 92.703125 161.242188 93.007812 161.984375 93.023438 C 162.761719 93.039062 163.445312 92.691406 164.035156 92.203125 C 164.644531 91.703125 165.195312 91.109375 165.738281 90.539062 C 166.300781 89.949219 166.832031 89.335938 167.3125 88.679688 C 167.828125 87.988281 168.25 87.238281 168.554688 86.445312 C 168.671875 86.417969 168.78125 86.34375 168.871094 86.226562 C 169.339844 85.566406 169.292969 84.824219 169.015625 84.128906 " fill-opacity="1" fill-rule="nonzero"/><path fill="#000000" d="M 160.449219 80.839844 C 161.050781 80.550781 161.679688 80.304688 162.296875 80.046875 C 162.609375 79.914062 162.921875 79.777344 163.238281 79.652344 C 163.449219 79.570312 163.683594 79.46875 163.910156 79.464844 C 165.628906 81.21875 165.039062 84.539062 163.792969 86.394531 C 163.101562 87.425781 161.898438 88.15625 160.636719 87.859375 C 159.457031 87.585938 158.476562 86.730469 157.949219 85.648438 C 157.566406 84.863281 157.492188 84.003906 157.652344 83.183594 C 158.460938 82.21875 159.300781 81.398438 160.449219 80.839844 " fill-opacity="1" fill-rule="nonzero"/><path fill="#ffffff" d="M 167.578125 84.339844 C 167.394531 86.648438 165.703125 88.503906 164.148438 90.0625 C 163.410156 90.804688 162.617188 91.851562 161.453125 91.445312 C 160.304688 91.046875 159.445312 89.925781 158.636719 89.078125 C 157.84375 88.253906 156.726562 87.351562 156.378906 86.214844 C 156.183594 85.585938 156.347656 85.027344 156.644531 84.511719 C 156.886719 86.304688 158.074219 87.964844 159.863281 88.644531 C 161.382812 89.222656 163.003906 88.746094 164.097656 87.570312 C 165.222656 86.359375 165.769531 84.597656 165.90625 82.972656 C 165.925781 82.761719 165.933594 82.554688 165.929688 82.34375 C 166.019531 82.472656 166.117188 82.597656 166.226562 82.714844 C 166.5625 83.074219 167.207031 83.53125 167.648438 84.050781 C 167.609375 84.140625 167.585938 84.238281 167.578125 84.339844 " fill-opacity="1" fill-rule="nonzero"/><path fill="#000000" d="M 221.726562 80.601562 C 220.503906 78.171875 218.222656 76.292969 215.628906 75.511719 C 214.863281 75.28125 214.027344 75.136719 213.277344 75.5 C 212.644531 75.804688 212.25 76.429688 211.96875 77.050781 C 211.289062 78.558594 210.6875 80.105469 210.132812 81.664062 C 209.8125 82.554688 209.425781 83.46875 209.308594 84.414062 C 209.199219 85.328125 209.507812 86.15625 210.167969 86.792969 C 210.816406 87.417969 211.617188 87.910156 212.347656 88.421875 C 212.492188 88.523438 212.636719 88.617188 212.78125 88.710938 L 214.757812 90.195312 C 215.378906 90.660156 216.097656 91.414062 216.953125 91.207031 C 217.726562 91.019531 218.105469 90.222656 218.492188 89.601562 C 219.414062 88.121094 220.320312 86.632812 221.210938 85.132812 C 221.601562 84.46875 222.082031 83.785156 222.226562 83.015625 C 222.386719 82.164062 222.101562 81.355469 221.726562 80.601562 " fill-opacity="1" fill-rule="nonzero"/><path fill="#000000" d="M 212.679688 79.09375 C 212.921875 78.507812 213.144531 77.894531 213.460938 77.34375 C 213.726562 76.875 214.035156 76.679688 214.585938 76.765625 C 215.613281 76.921875 216.632812 77.425781 217.5 78.003906 C 218.171875 78.789062 218.730469 79.632812 218.773438 80.714844 C 218.800781 81.386719 218.765625 82.113281 218.636719 82.773438 C 218.519531 83.378906 218.207031 83.859375 217.777344 84.289062 C 216.980469 85.085938 215.890625 85.8125 214.710938 85.671875 C 213.652344 85.542969 212.722656 84.789062 212.226562 83.867188 C 211.835938 83.148438 211.703125 82.339844 211.734375 81.53125 C 212.035156 80.714844 212.347656 79.902344 212.679688 79.09375 " fill-opacity="1" fill-rule="nonzero"/><path fill="#ffffff" d="M 220.355469 83.691406 C 219.59375 85 218.808594 86.296875 218.015625 87.589844 C 217.59375 88.269531 217.210938 89.039062 216.714844 89.667969 C 216.691406 89.695312 216.664062 89.734375 216.632812 89.757812 C 216.5625 89.734375 216.492188 89.667969 216.429688 89.628906 C 216.09375 89.390625 215.765625 89.128906 215.4375 88.878906 C 214.058594 87.84375 212.679688 86.808594 211.296875 85.769531 C 211.238281 85.726562 211.171875 85.699219 211.105469 85.683594 C 210.941406 85.511719 210.808594 85.3125 210.761719 85.082031 C 210.652344 84.566406 210.847656 84.011719 211.027344 83.507812 C 211.078125 83.664062 211.132812 83.820312 211.199219 83.972656 C 211.722656 85.199219 212.796875 86.203125 214.09375 86.542969 C 215.546875 86.925781 216.914062 86.3125 218.019531 85.390625 C 218.554688 84.945312 219.050781 84.414062 219.339844 83.777344 C 219.667969 83.050781 219.699219 82.222656 219.742188 81.4375 C 219.765625 80.972656 219.75 80.515625 219.675781 80.070312 C 219.78125 80.210938 219.882812 80.355469 219.976562 80.503906 C 220.285156 80.984375 220.59375 81.503906 220.746094 82.058594 C 220.914062 82.675781 220.660156 83.164062 220.355469 83.691406 " fill-opacity="1" fill-rule="nonzero"/><path fill="#000000" d="M 223.300781 71.207031 C 222.542969 70.816406 221.710938 70.589844 220.941406 70.207031 C 220.15625 69.816406 219.394531 69.355469 218.691406 68.832031 C 217.304688 67.796875 216.082031 66.566406 214.683594 65.546875 C 212.199219 63.738281 208.566406 62.460938 205.941406 64.714844 C 204.78125 65.710938 204.101562 67.265625 204.492188 68.789062 C 204.644531 69.367188 205.53125 69.121094 205.386719 68.542969 C 205.085938 67.335938 205.703125 66.15625 206.617188 65.394531 C 207.695312 64.5 209.136719 64.3125 210.472656 64.601562 C 213.59375 65.269531 215.796875 67.847656 218.300781 69.628906 C 219.042969 70.152344 219.816406 70.621094 220.632812 71.011719 C 221.410156 71.378906 222.257812 71.777344 223.125 71.863281 C 223.472656 71.902344 223.597656 71.363281 223.300781 71.207031 " fill-opacity="1" fill-rule="nonzero"/><path fill="#ffffff" d="M 159.8125 81.152344 C 157.976562 81.152344 157.972656 84.015625 159.8125 84.015625 C 161.644531 84.015625 161.648438 81.152344 159.8125 81.152344 " fill-opacity="1" fill-rule="nonzero"/><path fill="#ffffff" d="M 214.339844 79.007812 C 212.503906 79.007812 212.5 81.871094 214.339844 81.871094 C 216.171875 81.871094 216.171875 79.007812 214.339844 79.007812 " fill-opacity="1" fill-rule="nonzero"/><path fill="#5e17eb" d="M 193.503906 219.960938 C 193.308594 230.308594 221.800781 240.683594 224.789062 240.742188 C 227.777344 240.800781 230.691406 220.566406 227.417969 220.609375 C 231.152344 217.710938 228.339844 201.875 225.351562 201.816406 C 222.359375 201.761719 193.699219 209.609375 193.503906 219.960938 " fill-opacity="1" fill-rule="nonzero"/><g clip-path="url(#3101d16cc0)"><path fill="#000000" d="M 193.503906 219.960938 L 192.976562 219.953125 C 192.976562 219.992188 192.976562 220.03125 192.976562 220.070312 C 192.976562 221.480469 193.460938 222.867188 194.277344 224.195312 C 195.707031 226.519531 198.15625 228.707031 201.058594 230.722656 C 205.414062 233.738281 210.808594 236.355469 215.371094 238.230469 C 217.648438 239.164062 219.722656 239.917969 221.351562 240.4375 C 222.167969 240.699219 222.875 240.902344 223.445312 241.042969 C 223.730469 241.113281 223.984375 241.167969 224.203125 241.207031 C 224.425781 241.246094 224.609375 241.269531 224.777344 241.273438 L 224.800781 241.273438 C 225.03125 241.273438 225.25 241.203125 225.441406 241.097656 C 225.621094 241 225.777344 240.867188 225.921875 240.714844 C 226.195312 240.425781 226.429688 240.0625 226.660156 239.628906 C 227.054688 238.867188 227.414062 237.890625 227.738281 236.769531 C 228.714844 233.414062 229.386719 228.777344 229.390625 225.277344 C 229.386719 223.898438 229.285156 222.699219 229.035156 221.785156 C 228.90625 221.328125 228.742188 220.9375 228.492188 220.625 C 228.367188 220.46875 228.21875 220.332031 228.035156 220.230469 C 227.855469 220.132812 227.640625 220.074219 227.429688 220.078125 C 227.425781 220.078125 227.410156 220.078125 227.382812 220.078125 L 227.417969 220.609375 L 227.742188 221.027344 C 228.136719 220.722656 228.449219 220.320312 228.703125 219.851562 C 229.082031 219.148438 229.335938 218.296875 229.5 217.34375 C 229.664062 216.394531 229.734375 215.339844 229.734375 214.242188 C 229.734375 211.421875 229.257812 208.289062 228.523438 205.820312 C 228.15625 204.585938 227.722656 203.519531 227.234375 202.71875 C 226.984375 202.320312 226.722656 201.984375 226.421875 201.730469 C 226.269531 201.601562 226.109375 201.492188 225.929688 201.417969 C 225.753906 201.335938 225.558594 201.289062 225.359375 201.285156 L 225.316406 201.285156 C 225.070312 201.285156 224.757812 201.320312 224.363281 201.382812 C 223.621094 201.5 222.59375 201.714844 221.347656 202.027344 C 216.996094 203.121094 210.023438 205.367188 204.074219 208.421875 C 201.097656 209.949219 198.378906 211.675781 196.367188 213.589844 C 195.359375 214.546875 194.527344 215.554688 193.9375 216.613281 C 193.347656 217.671875 193 218.792969 192.976562 219.953125 L 193.503906 219.960938 L 194.035156 219.972656 C 194.054688 218.808594 194.476562 217.65625 195.238281 216.515625 C 195.902344 215.519531 196.832031 214.539062 197.949219 213.59375 C 199.914062 211.9375 202.464844 210.394531 205.226562 209.023438 C 209.367188 206.96875 213.976562 205.289062 217.765625 204.132812 C 219.660156 203.554688 221.347656 203.105469 222.671875 202.800781 C 223.332031 202.648438 223.902344 202.535156 224.355469 202.457031 C 224.804688 202.382812 225.148438 202.34375 225.316406 202.347656 L 225.339844 202.347656 C 225.386719 202.347656 225.4375 202.359375 225.503906 202.386719 C 225.628906 202.441406 225.804688 202.570312 225.988281 202.792969 C 226.316406 203.179688 226.671875 203.820312 226.992188 204.625 C 227.476562 205.835938 227.902344 207.410156 228.203125 209.097656 C 228.503906 210.78125 228.679688 212.582031 228.679688 214.242188 C 228.679688 215.644531 228.550781 216.949219 228.28125 217.996094 C 228.144531 218.519531 227.972656 218.976562 227.773438 219.34375 C 227.570312 219.714844 227.34375 219.996094 227.09375 220.1875 C 226.910156 220.332031 226.84375 220.578125 226.925781 220.796875 C 227.007812 221.015625 227.222656 221.152344 227.457031 221.136719 L 227.425781 220.699219 L 227.433594 221.136719 L 227.457031 221.136719 L 227.425781 220.699219 L 227.433594 221.136719 L 227.429688 220.796875 L 227.429688 221.136719 L 227.433594 221.136719 L 227.429688 220.796875 L 227.429688 221.136719 C 227.472656 221.136719 227.492188 221.144531 227.53125 221.164062 C 227.5625 221.179688 227.601562 221.210938 227.648438 221.265625 C 227.730469 221.359375 227.832031 221.527344 227.917969 221.765625 C 228.050781 222.121094 228.160156 222.625 228.226562 223.222656 C 228.296875 223.820312 228.332031 224.515625 228.332031 225.277344 C 228.332031 228.195312 227.832031 232.039062 227.085938 235.117188 C 226.710938 236.652344 226.273438 238.003906 225.824219 238.933594 C 225.601562 239.394531 225.371094 239.75 225.175781 239.960938 C 225.078125 240.066406 224.988281 240.136719 224.925781 240.171875 C 224.859375 240.207031 224.824219 240.210938 224.800781 240.210938 L 224.792969 240.210938 L 224.796875 240.210938 C 224.679688 240.210938 224.410156 240.175781 224.058594 240.097656 C 223.390625 239.949219 222.40625 239.671875 221.203125 239.273438 C 216.996094 237.890625 210.132812 235.082031 204.363281 231.59375 C 201.476562 229.847656 198.863281 227.933594 196.996094 225.960938 C 196.0625 224.972656 195.316406 223.976562 194.808594 222.988281 C 194.300781 222 194.035156 221.027344 194.035156 220.070312 C 194.035156 220.039062 194.035156 220.003906 194.035156 219.972656 L 193.503906 219.960938 " fill-opacity="1" fill-rule="nonzero"/></g><path fill="#5e17eb" d="M 199.40625 217.585938 L 214.132812 212.933594 " fill-opacity="1" fill-rule="nonzero"/><path fill="#000000" d="M 199.246094 217.078125 L 214.132812 212.933594 L 199.5625 218.089844 C 199.289062 218.1875 198.984375 218.042969 198.886719 217.765625 C 198.792969 217.492188 198.9375 217.1875 199.210938 217.089844 L 199.246094 217.078125 " fill-opacity="1" fill-rule="nonzero"/><path fill="#5e17eb" d="M 199.261719 225.136719 L 214.636719 232.925781 " fill-opacity="1" fill-rule="nonzero"/><path fill="#000000" d="M 199.5 224.664062 L 214.636719 232.925781 L 199.023438 225.609375 C 198.757812 225.488281 198.644531 225.167969 198.769531 224.90625 C 198.890625 224.640625 199.207031 224.523438 199.472656 224.648438 L 199.5 224.664062 " fill-opacity="1" fill-rule="nonzero"/><path fill="#5e17eb" d="M 200.382812 220.8125 L 212.898438 221.875 " fill-opacity="1" fill-rule="nonzero"/><path fill="#000000" d="M 200.425781 220.28125 L 212.898438 221.875 L 200.335938 221.339844 C 200.042969 221.328125 199.816406 221.078125 199.828125 220.785156 C 199.84375 220.492188 200.089844 220.265625 200.382812 220.277344 L 200.425781 220.28125 " fill-opacity="1" fill-rule="nonzero"/><g clip-path="url(#766f0741f6)"><path fill="#5e17eb" d="M 190.105469 219.894531 C 189.90625 230.246094 161.042969 239.523438 158.054688 239.46875 C 155.066406 239.410156 152.921875 219.082031 156.191406 219.246094 C 152.570312 216.207031 155.980469 200.496094 158.96875 200.554688 C 161.960938 200.605469 190.300781 209.542969 190.105469 219.894531 " fill-opacity="1" fill-rule="nonzero"/><path fill="#000000" d="M 190.105469 219.894531 L 189.574219 219.886719 C 189.554688 221.050781 189.128906 222.226562 188.359375 223.40625 C 187.011719 225.476562 184.605469 227.519531 181.710938 229.378906 C 177.363281 232.175781 171.925781 234.574219 167.328125 236.269531 C 165.03125 237.117188 162.941406 237.789062 161.308594 238.246094 C 160.488281 238.472656 159.785156 238.648438 159.230469 238.765625 C 158.953125 238.824219 158.714844 238.867188 158.515625 238.894531 C 158.324219 238.925781 158.167969 238.9375 158.082031 238.9375 L 158.0625 238.9375 L 158.066406 238.9375 C 158.042969 238.9375 158.011719 238.929688 157.957031 238.898438 C 157.851562 238.84375 157.675781 238.679688 157.5 238.40625 C 157.1875 237.921875 156.855469 237.128906 156.5625 236.152344 C 156.121094 234.683594 155.746094 232.796875 155.488281 230.828125 C 155.226562 228.863281 155.078125 226.808594 155.082031 225.003906 C 155.078125 223.40625 155.199219 221.996094 155.441406 221.035156 C 155.558594 220.558594 155.710938 220.195312 155.855469 219.996094 C 155.925781 219.898438 155.988281 219.839844 156.035156 219.8125 C 156.082031 219.785156 156.109375 219.777344 156.152344 219.777344 L 156.160156 219.777344 C 156.386719 219.792969 156.597656 219.65625 156.683594 219.445312 C 156.765625 219.230469 156.707031 218.988281 156.53125 218.839844 C 156.316406 218.660156 156.117188 218.40625 155.941406 218.082031 C 155.683594 217.597656 155.480469 216.953125 155.351562 216.199219 C 155.21875 215.449219 155.15625 214.589844 155.15625 213.671875 C 155.15625 210.929688 155.714844 207.683594 156.519531 205.164062 C 156.921875 203.90625 157.386719 202.824219 157.851562 202.097656 C 158.082031 201.730469 158.316406 201.457031 158.511719 201.292969 C 158.613281 201.210938 158.699219 201.15625 158.773438 201.125 C 158.847656 201.09375 158.90625 201.082031 158.953125 201.082031 L 158.953125 200.910156 L 158.945312 201.082031 L 158.953125 201.082031 L 158.953125 200.910156 L 158.945312 201.082031 L 158.960938 201.082031 C 159.089844 201.085938 159.359375 201.117188 159.714844 201.1875 C 160.378906 201.3125 161.363281 201.554688 162.558594 201.902344 C 166.75 203.117188 173.582031 205.59375 179.320312 208.800781 C 182.1875 210.402344 184.785156 212.191406 186.636719 214.066406 C 187.5625 215.003906 188.304688 215.960938 188.808594 216.917969 C 189.308594 217.875 189.574219 218.832031 189.578125 219.789062 C 189.578125 219.820312 189.574219 219.851562 189.574219 219.886719 L 190.105469 219.894531 L 190.632812 219.902344 C 190.632812 219.867188 190.632812 219.828125 190.632812 219.789062 C 190.632812 218.375 190.152344 217.011719 189.335938 215.722656 C 188.625 214.589844 187.65625 213.511719 186.503906 212.476562 C 184.492188 210.667969 181.921875 209 179.160156 207.503906 C 175.015625 205.261719 170.441406 203.40625 166.675781 202.101562 C 164.789062 201.453125 163.113281 200.941406 161.789062 200.585938 C 161.128906 200.410156 160.554688 200.273438 160.085938 200.179688 C 159.851562 200.128906 159.644531 200.09375 159.460938 200.066406 C 159.277344 200.039062 159.121094 200.023438 158.980469 200.023438 L 158.96875 200.554688 L 158.996094 200.023438 L 158.953125 200.023438 C 158.742188 200.023438 158.539062 200.070312 158.355469 200.152344 C 158.003906 200.304688 157.710938 200.558594 157.433594 200.878906 C 156.957031 201.4375 156.53125 202.210938 156.136719 203.140625 C 155.546875 204.535156 155.042969 206.277344 154.679688 208.121094 C 154.316406 209.960938 154.097656 211.898438 154.097656 213.671875 C 154.097656 214.957031 154.210938 216.15625 154.480469 217.183594 C 154.613281 217.695312 154.789062 218.167969 155.011719 218.585938 C 155.234375 219.003906 155.511719 219.367188 155.851562 219.65625 L 156.191406 219.246094 L 156.222656 218.71875 C 156.199219 218.714844 156.171875 218.714844 156.152344 218.714844 C 155.914062 218.714844 155.675781 218.785156 155.480469 218.910156 C 155.308594 219.015625 155.164062 219.15625 155.042969 219.3125 C 154.832031 219.589844 154.675781 219.921875 154.550781 220.308594 C 154.359375 220.882812 154.230469 221.578125 154.144531 222.375 C 154.0625 223.167969 154.023438 224.054688 154.023438 225.003906 C 154.023438 228.03125 154.417969 231.660156 155.0625 234.574219 C 155.386719 236.03125 155.769531 237.304688 156.214844 238.257812 C 156.441406 238.734375 156.679688 239.128906 156.964844 239.441406 C 157.105469 239.59375 157.261719 239.726562 157.441406 239.828125 C 157.621094 239.929688 157.828125 239.992188 158.046875 239.996094 L 158.082031 239.996094 C 158.339844 239.996094 158.652344 239.957031 159.050781 239.882812 C 159.796875 239.746094 160.828125 239.488281 162.078125 239.128906 C 166.453125 237.859375 173.476562 235.289062 179.46875 231.953125 C 182.464844 230.28125 185.203125 228.421875 187.226562 226.414062 C 188.238281 225.410156 189.074219 224.367188 189.667969 223.28125 C 190.261719 222.195312 190.613281 221.066406 190.632812 219.90625 L 190.632812 219.902344 L 190.105469 219.894531 " fill-opacity="1" fill-rule="nonzero"/></g><path fill="#5e17eb" d="M 199.808594 219.875 C 199.6875 226.535156 200.300781 228.800781 191.863281 228.636719 C 185.394531 228.511719 184.125 226.238281 184.253906 219.578125 C 184.386719 212.691406 184.425781 210.667969 192.203125 210.816406 C 199.984375 210.964844 199.929688 213.78125 199.808594 219.875 " fill-opacity="1" fill-rule="nonzero"/><path fill="#000000" d="M 199.808594 219.875 L 199.28125 219.863281 C 199.25 221.480469 199.265625 222.832031 199.183594 223.921875 C 199.125 224.742188 199.011719 225.40625 198.8125 225.925781 C 198.664062 226.320312 198.472656 226.628906 198.210938 226.890625 C 198.015625 227.089844 197.773438 227.261719 197.472656 227.414062 C 197.015625 227.640625 196.410156 227.820312 195.621094 227.9375 C 194.832031 228.058594 193.859375 228.113281 192.675781 228.113281 C 192.417969 228.113281 192.152344 228.113281 191.875 228.105469 C 190.355469 228.078125 189.152344 227.925781 188.21875 227.640625 C 187.515625 227.425781 186.96875 227.140625 186.535156 226.78125 C 186.207031 226.507812 185.941406 226.191406 185.714844 225.8125 C 185.378906 225.242188 185.140625 224.527344 184.992188 223.632812 C 184.839844 222.742188 184.777344 221.675781 184.777344 220.425781 C 184.777344 220.15625 184.777344 219.875 184.785156 219.589844 C 184.816406 217.925781 184.84375 216.554688 184.972656 215.464844 C 185.066406 214.640625 185.214844 213.980469 185.445312 213.464844 C 185.621094 213.078125 185.832031 212.769531 186.113281 212.511719 C 186.320312 212.316406 186.570312 212.148438 186.875 212 C 187.332031 211.78125 187.925781 211.613281 188.675781 211.503906 C 189.425781 211.394531 190.339844 211.339844 191.429688 211.339844 C 191.675781 211.339844 191.929688 211.34375 192.191406 211.347656 L 192.195312 211.347656 C 193.886719 211.378906 195.179688 211.542969 196.152344 211.824219 C 196.878906 212.035156 197.421875 212.308594 197.835938 212.636719 C 198.144531 212.882812 198.382812 213.164062 198.574219 213.488281 C 198.867188 213.976562 199.050781 214.574219 199.164062 215.308594 C 199.273438 216.042969 199.308594 216.902344 199.308594 217.886719 C 199.308594 218.5 199.292969 219.15625 199.28125 219.863281 L 199.808594 219.875 L 200.339844 219.886719 C 200.351562 219.179688 200.367188 218.511719 200.367188 217.886719 C 200.363281 216.691406 200.320312 215.636719 200.128906 214.703125 C 199.988281 214 199.757812 213.363281 199.398438 212.804688 C 199.125 212.382812 198.78125 212.011719 198.355469 211.699219 C 197.71875 211.230469 196.910156 210.894531 195.90625 210.664062 C 194.898438 210.4375 193.6875 210.316406 192.214844 210.289062 C 191.945312 210.28125 191.683594 210.28125 191.429688 210.28125 C 189.652344 210.28125 188.292969 210.410156 187.21875 210.738281 C 186.410156 210.980469 185.761719 211.347656 185.265625 211.855469 C 184.894531 212.238281 184.613281 212.691406 184.410156 213.199219 C 184.101562 213.96875 183.953125 214.859375 183.863281 215.90625 C 183.777344 216.957031 183.753906 218.164062 183.726562 219.566406 C 183.722656 219.863281 183.71875 220.148438 183.71875 220.425781 C 183.71875 221.949219 183.808594 223.238281 184.050781 224.339844 C 184.234375 225.167969 184.503906 225.886719 184.902344 226.507812 C 185.199219 226.972656 185.5625 227.375 186 227.710938 C 186.65625 228.214844 187.464844 228.566406 188.429688 228.796875 C 189.394531 229.027344 190.523438 229.140625 191.851562 229.167969 C 192.136719 229.171875 192.410156 229.175781 192.675781 229.175781 C 194.601562 229.175781 196.027344 229.03125 197.132812 228.6875 C 197.957031 228.429688 198.605469 228.042969 199.082031 227.511719 C 199.4375 227.117188 199.691406 226.648438 199.863281 226.132812 C 200.125 225.359375 200.222656 224.472656 200.273438 223.441406 C 200.320312 222.414062 200.3125 221.234375 200.339844 219.882812 L 199.808594 219.875 " fill-opacity="1" fill-rule="nonzero"/><path fill="#5e17eb" d="M 184.300781 217.296875 L 169.757812 212.085938 " fill-opacity="1" fill-rule="nonzero"/><path fill="#000000" d="M 184.121094 217.796875 L 169.757812 212.085938 L 184.476562 216.796875 C 184.757812 216.886719 184.910156 217.183594 184.820312 217.464844 C 184.730469 217.742188 184.433594 217.898438 184.15625 217.808594 L 184.121094 217.796875 " fill-opacity="1" fill-rule="nonzero"/><path fill="#5e17eb" d="M 184.152344 224.847656 L 168.492188 232.042969 " fill-opacity="1" fill-rule="nonzero"/><path fill="#000000" d="M 184.375 225.332031 L 168.492188 232.042969 L 183.933594 224.367188 C 184.195312 224.238281 184.515625 224.34375 184.644531 224.605469 C 184.773438 224.867188 184.664062 225.1875 184.402344 225.316406 L 184.375 225.332031 " fill-opacity="1" fill-rule="nonzero"/><path fill="#5e17eb" d="M 183.203125 220.484375 L 170.652344 221.070312 " fill-opacity="1" fill-rule="nonzero"/><path fill="#000000" d="M 183.230469 221.011719 L 170.652344 221.070312 L 183.179688 219.953125 C 183.46875 219.925781 183.726562 220.144531 183.753906 220.433594 C 183.78125 220.726562 183.566406 220.984375 183.273438 221.011719 L 183.230469 221.011719 " fill-opacity="1" fill-rule="nonzero"/><g fill="#000000" fill-opacity="1"><g transform="translate(45.452834, 303.67884)"><g><path d="M 23.625 -21.53125 L 26.296875 -19.6875 C 26.378906 -19.644531 26.453125 -19.601562 26.515625 -19.5625 C 28.648438 -18.269531 30.132812 -16.734375 30.96875 -14.953125 C 31.8125 -13.171875 31.816406 -11.171875 30.984375 -8.953125 C 30.140625 -6.734375 28.617188 -4.859375 26.421875 -3.328125 C 24.984375 -2.316406 23.234375 -1.59375 21.171875 -1.15625 C 19.117188 -0.726562 16.992188 -0.566406 14.796875 -0.671875 C 14.773438 -0.648438 14.765625 -0.640625 14.765625 -0.640625 L 14.765625 -0.609375 C 12.015625 -0.773438 10.703125 -0.960938 10.828125 -1.171875 C 9.828125 -1.390625 8.976562 -1.601562 8.28125 -1.8125 L 3.328125 -4.09375 C 2.359375 -4.707031 1.515625 -5.40625 0.796875 -6.1875 C 0.773438 -6.226562 0.75 -6.257812 0.71875 -6.28125 C 0.6875 -6.300781 0.671875 -6.347656 0.671875 -6.421875 C 0.628906 -6.421875 0.59375 -6.441406 0.5625 -6.484375 C 0.53125 -6.523438 0.515625 -6.554688 0.515625 -6.578125 C 0.128906 -7.015625 -0.0820312 -7.488281 -0.125 -8 L -0.125 -8.21875 C -0.101562 -8.875 -0.0664062 -9.664062 -0.015625 -10.59375 C 0.0351562 -11.53125 0.1875 -12.296875 0.4375 -12.890625 C 0.71875 -13.566406 1.128906 -13.78125 1.671875 -13.53125 C 2.210938 -13.289062 2.660156 -13.015625 3.015625 -12.703125 C 3.054688 -12.640625 3.097656 -12.597656 3.140625 -12.578125 C 3.179688 -12.554688 3.222656 -12.523438 3.265625 -12.484375 C 4.179688 -11.691406 5.21875 -11.015625 6.375 -10.453125 C 8.976562 -9.203125 12.132812 -8.609375 15.84375 -8.671875 C 15.96875 -8.734375 16.160156 -8.835938 16.421875 -8.984375 C 17.242188 -9.453125 17.429688 -10.097656 16.984375 -10.921875 C 16.941406 -10.941406 16.910156 -10.972656 16.890625 -11.015625 C 16.867188 -11.054688 16.847656 -11.109375 16.828125 -11.171875 C 16.597656 -11.453125 14.382812 -12.753906 10.1875 -15.078125 C 6.1875 -17.828125 3.890625 -19.660156 3.296875 -20.578125 C 1.878906 -22.691406 1.457031 -24.8125 2.03125 -26.9375 C 2.601562 -29.070312 3.863281 -30.921875 5.8125 -32.484375 C 9.21875 -35.273438 14.679688 -36.289062 22.203125 -35.53125 C 23.109375 -35.257812 23.921875 -34.984375 24.640625 -34.703125 C 24.890625 -34.597656 25.28125 -34.421875 25.8125 -34.171875 C 26.300781 -33.890625 26.882812 -33.59375 27.5625 -33.28125 C 28.382812 -32.914062 28.722656 -32.523438 28.578125 -32.109375 C 28.617188 -32.035156 28.671875 -31.957031 28.734375 -31.875 C 29.179688 -31.28125 29.53125 -30.472656 29.78125 -29.453125 C 30.039062 -28.441406 29.832031 -27.640625 29.15625 -27.046875 C 29.082031 -26.984375 29.035156 -26.941406 29.015625 -26.921875 C 28.429688 -26.484375 27.609375 -26.390625 26.546875 -26.640625 C 25.378906 -26.960938 24.242188 -27.226562 23.140625 -27.4375 L 21.3125 -27.90625 C 18.9375 -28.207031 17.195312 -28.359375 16.09375 -28.359375 C 13.875 -27.617188 14.394531 -26.1875 17.65625 -24.0625 C 17.925781 -23.8125 19.914062 -22.96875 23.625 -21.53125 Z M 23.625 -21.53125 "/></g></g></g><g fill="#000000" fill-opacity="1"><g transform="translate(80.693851, 303.67884)"><g><path d="M 5.59375 -25.65625 C 5.695312 -27.5625 5.863281 -29.140625 6.09375 -30.390625 C 6.351562 -31.679688 6.648438 -32.6875 6.984375 -33.40625 C 7.265625 -34.019531 7.59375 -34.429688 7.96875 -34.640625 C 8.476562 -34.898438 9.195312 -35.070312 10.125 -35.15625 C 11.0625 -35.238281 11.796875 -35.25 12.328125 -35.1875 C 13.066406 -35.082031 13.648438 -34.820312 14.078125 -34.40625 C 14.515625 -33.988281 14.671875 -33.164062 14.546875 -31.9375 C 14.328125 -29.96875 14.164062 -27.90625 14.0625 -25.75 C 14.570312 -25.726562 15.082031 -25.695312 15.59375 -25.65625 C 16.414062 -25.570312 17.238281 -25.40625 18.0625 -25.15625 C 18.894531 -24.914062 19.5625 -24.585938 20.0625 -24.171875 C 20.425781 -23.847656 20.703125 -23.328125 20.890625 -22.609375 C 21.054688 -21.972656 21.117188 -21.242188 21.078125 -20.421875 C 21.015625 -19.640625 20.890625 -19.003906 20.703125 -18.515625 C 20.472656 -17.960938 20.175781 -17.695312 19.8125 -17.71875 C 19.644531 -17.71875 19.46875 -17.75 19.28125 -17.8125 C 19.125 -17.832031 18.910156 -17.894531 18.640625 -18 C 17.367188 -18.425781 15.929688 -18.679688 14.328125 -18.765625 L 14 -18.765625 C 14 -18.554688 14.007812 -18.34375 14.03125 -18.125 C 14.15625 -13.113281 14.664062 -8.679688 15.5625 -4.828125 C 15.644531 -4.421875 15.742188 -4 15.859375 -3.5625 C 15.972656 -3.132812 16.039062 -2.707031 16.0625 -2.28125 C 16.0625 -1.5 15.773438 -0.9375 15.203125 -0.59375 C 14.640625 -0.257812 13.972656 -0.0703125 13.203125 -0.03125 C 12.441406 0.0078125 11.535156 -0.0351562 10.484375 -0.171875 C 9.441406 -0.304688 8.765625 -0.492188 8.453125 -0.734375 C 7.878906 -1.128906 7.441406 -1.734375 7.140625 -2.546875 C 6.847656 -3.367188 6.628906 -4.171875 6.484375 -4.953125 C 6.160156 -6.429688 5.910156 -8.320312 5.734375 -10.625 C 5.554688 -12.9375 5.457031 -15.320312 5.4375 -17.78125 C 5.40625 -18.1875 5.390625 -18.585938 5.390625 -18.984375 L 5.234375 -18.984375 C 3.984375 -18.960938 2.757812 -18.847656 1.5625 -18.640625 C 1.238281 -18.578125 1.035156 -18.546875 0.953125 -18.546875 C 0.765625 -18.546875 0.582031 -18.578125 0.40625 -18.640625 C 0.28125 -18.703125 0.15625 -18.816406 0.03125 -18.984375 C -0.0507812 -19.109375 -0.132812 -19.320312 -0.21875 -19.625 C -0.363281 -20.15625 -0.429688 -20.75 -0.421875 -21.40625 C -0.410156 -22.0625 -0.34375 -22.664062 -0.21875 -23.21875 C -0.09375 -23.800781 0.304688 -24.265625 0.984375 -24.609375 C 1.367188 -24.796875 1.800781 -24.976562 2.28125 -25.15625 C 2.625 -25.238281 3.125 -25.34375 3.78125 -25.46875 C 4.050781 -25.507812 4.535156 -25.570312 5.234375 -25.65625 Z M 5.59375 -25.65625 "/></g></g></g><g fill="#000000" fill-opacity="1"><g transform="translate(105.04592, 303.67884)"><g><path d="M 1.390625 -22.296875 C 1.960938 -23.179688 2.46875 -23.820312 2.90625 -24.21875 C 3.34375 -24.625 3.960938 -25.144531 4.765625 -25.78125 C 5.648438 -26.164062 6.539062 -25.910156 7.4375 -25.015625 C 8.726562 -23.722656 9.8125 -21.878906 10.6875 -19.484375 C 11.5625 -17.097656 12.59375 -15.1875 13.78125 -13.75 C 14.144531 -13.257812 14.539062 -13.164062 14.96875 -13.46875 C 15.40625 -13.78125 15.769531 -14.117188 16.0625 -14.484375 C 16.9375 -15.472656 17.78125 -16.867188 18.59375 -18.671875 C 19.40625 -20.472656 20.097656 -22.007812 20.671875 -23.28125 C 21.003906 -24.0625 21.378906 -24.625 21.796875 -24.96875 C 22.210938 -25.320312 22.820312 -25.316406 23.625 -24.953125 C 24.382812 -24.578125 25.023438 -24.097656 25.546875 -23.515625 C 26.066406 -22.929688 26.566406 -22.25 27.046875 -21.46875 C 27.597656 -20.59375 27.738281 -19.4375 27.46875 -18 C 27.101562 -16.15625 26.472656 -14.332031 25.578125 -12.53125 C 24.679688 -10.738281 23.816406 -9.070312 22.984375 -7.53125 C 22.097656 -5.9375 21.171875 -4.410156 20.203125 -2.953125 C 19.242188 -1.492188 18.269531 -0.046875 17.28125 1.390625 C 16.34375 2.660156 15.40625 3.929688 14.46875 5.203125 C 13.539062 6.472656 12.53125 7.617188 11.4375 8.640625 C 10.269531 9.710938 9.1875 10.410156 8.1875 10.734375 C 7.445312 10.960938 6.570312 10.804688 5.5625 10.265625 C 4.5625 9.734375 3.859375 9.15625 3.453125 8.53125 C 3.054688 7.90625 2.660156 7.242188 2.265625 6.546875 C 1.878906 5.847656 1.894531 5.179688 2.3125 4.546875 C 2.65625 4.035156 3.160156 3.519531 3.828125 3 C 4.492188 2.476562 5.0625 1.910156 5.53125 1.296875 C 5.945312 0.773438 6.347656 0.335938 6.734375 -0.015625 C 7.128906 -0.367188 7.679688 -1.125 8.390625 -2.28125 C 9.722656 -4.101562 9.695312 -5.96875 8.3125 -7.875 C 7.769531 -8.820312 6.992188 -9.976562 5.984375 -11.34375 C 4.984375 -12.71875 4.175781 -13.835938 3.5625 -14.703125 C 3.132812 -15.316406 2.710938 -15.957031 2.296875 -16.625 C 1.890625 -17.289062 1.535156 -17.992188 1.234375 -18.734375 C 0.941406 -19.390625 0.789062 -19.976562 0.78125 -20.5 C 0.769531 -21.019531 0.972656 -21.617188 1.390625 -22.296875 Z M 1.390625 -22.296875 "/></g></g></g><g fill="#000000" fill-opacity="1"><g transform="translate(135.461515, 303.67884)"><g><path d="M 8.3125 -33.28125 C 7.875 -28.914062 7.71875 -24.125 7.84375 -18.90625 C 7.96875 -13.6875 8.453125 -9.078125 9.296875 -5.078125 C 9.367188 -4.660156 9.457031 -4.222656 9.5625 -3.765625 C 9.664062 -3.304688 9.738281 -2.851562 9.78125 -2.40625 C 9.78125 -1.625 9.503906 -1.054688 8.953125 -0.703125 C 8.398438 -0.359375 7.765625 -0.160156 7.046875 -0.109375 C 6.328125 -0.0546875 5.617188 -0.113281 4.921875 -0.28125 C 4.222656 -0.457031 3.722656 -0.671875 3.421875 -0.921875 C 2.878906 -1.347656 2.46875 -1.984375 2.1875 -2.828125 C 1.914062 -3.671875 1.707031 -4.492188 1.5625 -5.296875 C 1.257812 -6.847656 1.03125 -8.820312 0.875 -11.21875 C 0.71875 -13.625 0.625 -16.109375 0.59375 -18.671875 C 0.5625 -21.234375 0.597656 -23.6875 0.703125 -26.03125 C 0.804688 -28.382812 0.984375 -30.28125 1.234375 -31.71875 C 1.453125 -33.070312 1.71875 -34.128906 2.03125 -34.890625 C 2.28125 -35.523438 2.597656 -35.960938 2.984375 -36.203125 C 3.453125 -36.453125 3.988281 -36.601562 4.59375 -36.65625 C 5.195312 -36.707031 5.738281 -36.691406 6.21875 -36.609375 C 6.914062 -36.523438 7.472656 -36.265625 7.890625 -35.828125 C 8.304688 -35.398438 8.445312 -34.550781 8.3125 -33.28125 Z M 8.3125 -33.28125 "/></g></g></g><g fill="#000000" fill-opacity="1"><g transform="translate(148.480164, 303.67884)"><g><path d="M 0.90625 -7.828125 C 0.664062 -10.972656 0.707031 -14.175781 1.03125 -17.4375 C 1.363281 -20.695312 1.882812 -22.929688 2.59375 -24.140625 C 3.300781 -25.359375 4.003906 -25.9375 4.703125 -25.875 C 5.398438 -25.832031 6.066406 -25.757812 6.703125 -25.65625 C 7.273438 -25.53125 7.726562 -25.414062 8.0625 -25.3125 C 8.144531 -25.289062 8.253906 -25.238281 8.390625 -25.15625 C 8.453125 -25.101562 8.535156 -25.015625 8.640625 -24.890625 C 8.640625 -24.890625 8.734375 -24.796875 8.921875 -24.609375 C 8.960938 -24.566406 9.035156 -24.460938 9.140625 -24.296875 C 9.203125 -24.210938 9.253906 -24.082031 9.296875 -23.90625 C 9.347656 -23.695312 9.394531 -23.488281 9.4375 -23.28125 C 9.4375 -23.238281 9.46875 -23.035156 9.53125 -22.671875 C 9.550781 -22.421875 9.414062 -20.414062 9.125 -16.65625 C 8.84375 -12.894531 9.019531 -8.53125 9.65625 -3.5625 C 9.632812 -3.03125 9.570312 -2.507812 9.46875 -2 C 9.351562 -1.488281 9.242188 -1.140625 9.140625 -0.953125 C 8.953125 -0.660156 8.5625 -0.4375 7.96875 -0.28125 C 7.695312 -0.21875 7.394531 -0.179688 7.0625 -0.171875 C 6.738281 -0.160156 6.40625 -0.164062 6.0625 -0.1875 C 5.425781 -0.207031 4.75 -0.28125 4.03125 -0.40625 C 3.5 -0.5 3.035156 -0.617188 2.640625 -0.765625 C 2.535156 -0.828125 2.445312 -0.878906 2.375 -0.921875 C 2.3125 -0.941406 2.21875 -1.023438 2.09375 -1.171875 C 2.03125 -1.210938 1.945312 -1.304688 1.84375 -1.453125 C 1.84375 -1.429688 1.769531 -1.539062 1.625 -1.78125 C 1.5625 -1.820312 1.503906 -1.945312 1.453125 -2.15625 C 1.410156 -2.300781 1.359375 -2.515625 1.296875 -2.796875 C 1.273438 -3.003906 1.144531 -4.679688 0.90625 -7.828125 Z M 5.59375 -36.578125 C 6.726562 -36.578125 7.691406 -36.195312 8.484375 -35.4375 C 9.285156 -34.675781 9.6875 -33.742188 9.6875 -32.640625 C 9.6875 -31.554688 9.285156 -30.628906 8.484375 -29.859375 C 7.691406 -29.085938 6.726562 -28.703125 5.59375 -28.703125 C 4.488281 -28.703125 3.539062 -29.085938 2.75 -29.859375 C 1.957031 -30.628906 1.5625 -31.554688 1.5625 -32.640625 C 1.5625 -33.742188 1.957031 -34.675781 2.75 -35.4375 C 3.539062 -36.195312 4.488281 -36.578125 5.59375 -36.578125 Z M 5.59375 -36.578125 "/></g></g></g><g fill="#000000" fill-opacity="1"><g transform="translate(161.975016, 303.67884)"><g><path d="M 17.8125 -15.53125 L 19.71875 -14.21875 C 19.78125 -14.175781 19.832031 -14.144531 19.875 -14.125 C 21.394531 -13.195312 22.457031 -12.097656 23.0625 -10.828125 C 23.664062 -9.554688 23.671875 -8.128906 23.078125 -6.546875 C 22.460938 -4.972656 21.375 -3.640625 19.8125 -2.546875 C 18.78125 -1.816406 17.53125 -1.300781 16.0625 -1 C 14.601562 -0.695312 13.09375 -0.585938 11.53125 -0.671875 C 11.53125 -0.648438 11.53125 -0.628906 11.53125 -0.609375 L 11.5 -0.609375 C 9.550781 -0.734375 8.617188 -0.867188 8.703125 -1.015625 C 8.003906 -1.160156 7.398438 -1.304688 6.890625 -1.453125 L 3.359375 -3.109375 C 2.660156 -3.535156 2.0625 -4.023438 1.5625 -4.578125 C 1.539062 -4.617188 1.515625 -4.644531 1.484375 -4.65625 C 1.460938 -4.664062 1.453125 -4.691406 1.453125 -4.734375 C 1.410156 -4.753906 1.382812 -4.773438 1.375 -4.796875 C 1.363281 -4.816406 1.347656 -4.835938 1.328125 -4.859375 C 1.054688 -5.171875 0.910156 -5.507812 0.890625 -5.875 L 0.890625 -6.03125 C 0.910156 -6.5 0.9375 -7.066406 0.96875 -7.734375 C 1 -8.398438 1.109375 -8.945312 1.296875 -9.375 C 1.492188 -9.851562 1.78125 -10.003906 2.15625 -9.828125 C 2.539062 -9.648438 2.867188 -9.441406 3.140625 -9.203125 C 3.160156 -9.179688 3.1875 -9.160156 3.21875 -9.140625 C 3.25 -9.117188 3.285156 -9.097656 3.328125 -9.078125 C 3.960938 -8.503906 4.695312 -8.019531 5.53125 -7.625 C 7.382812 -6.726562 9.632812 -6.300781 12.28125 -6.34375 C 12.375 -6.394531 12.515625 -6.472656 12.703125 -6.578125 C 13.273438 -6.910156 13.398438 -7.363281 13.078125 -7.9375 C 13.054688 -7.976562 13.035156 -8.015625 13.015625 -8.046875 C 12.992188 -8.078125 12.984375 -8.101562 12.984375 -8.125 C 12.816406 -8.34375 11.238281 -9.273438 8.25 -10.921875 C 5.394531 -12.890625 3.753906 -14.191406 3.328125 -14.828125 C 2.316406 -16.347656 2.015625 -17.863281 2.421875 -19.375 C 2.835938 -20.894531 3.734375 -22.21875 5.109375 -23.34375 C 7.546875 -25.332031 11.441406 -26.050781 16.796875 -25.5 C 17.453125 -25.3125 18.035156 -25.117188 18.546875 -24.921875 C 18.734375 -24.835938 19.007812 -24.710938 19.375 -24.546875 C 19.726562 -24.335938 20.140625 -24.113281 20.609375 -23.875 C 21.222656 -23.625 21.46875 -23.347656 21.34375 -23.046875 C 21.382812 -23.003906 21.425781 -22.953125 21.46875 -22.890625 C 21.78125 -22.492188 22.023438 -21.925781 22.203125 -21.1875 C 22.390625 -20.457031 22.25 -19.882812 21.78125 -19.46875 C 21.71875 -19.425781 21.675781 -19.394531 21.65625 -19.375 C 21.25 -19.050781 20.664062 -18.984375 19.90625 -19.171875 C 19.082031 -19.410156 18.28125 -19.601562 17.5 -19.75 L 16.15625 -20.0625 C 14.46875 -20.28125 13.234375 -20.390625 12.453125 -20.390625 C 10.878906 -19.859375 11.257812 -18.84375 13.59375 -17.34375 C 13.78125 -17.164062 15.1875 -16.5625 17.8125 -15.53125 Z M 17.8125 -15.53125 "/></g></g></g><g fill="#000000" fill-opacity="1"><g transform="translate(188.644545, 303.67884)"><g><path d="M 4.859375 -0.28125 C 4.515625 -0.382812 4.25 -0.503906 4.0625 -0.640625 C 3.40625 -1.078125 2.90625 -1.722656 2.5625 -2.578125 C 2.226562 -3.441406 1.96875 -4.285156 1.78125 -5.109375 C 1.414062 -6.679688 1.128906 -8.679688 0.921875 -11.109375 C 0.710938 -13.546875 0.59375 -16.0625 0.5625 -18.65625 C 0.53125 -21.25 0.578125 -23.738281 0.703125 -26.125 C 0.828125 -28.519531 1.046875 -30.457031 1.359375 -31.9375 C 1.640625 -33.320312 1.96875 -34.394531 2.34375 -35.15625 C 2.664062 -35.789062 3.070312 -36.222656 3.5625 -36.453125 C 4.082031 -36.722656 4.722656 -36.882812 5.484375 -36.9375 C 6.253906 -37 6.9375 -36.992188 7.53125 -36.921875 C 8.394531 -36.816406 9.070312 -36.539062 9.5625 -36.09375 C 10.0625 -35.65625 10.226562 -34.800781 10.0625 -33.53125 C 9.707031 -30.675781 9.5 -27.640625 9.4375 -24.421875 C 10.46875 -24.609375 11.492188 -24.660156 12.515625 -24.578125 C 14.734375 -24.429688 16.734375 -23.734375 18.515625 -22.484375 C 20.421875 -21.148438 21.882812 -19.414062 22.90625 -17.28125 C 23.9375 -15.15625 24.6875 -13.023438 25.15625 -10.890625 C 25.46875 -9.410156 25.75 -7.347656 26 -4.703125 C 26.257812 -2.054688 26.070312 -0.0234375 25.4375 1.390625 C 25.195312 1.878906 24.835938 2.15625 24.359375 2.21875 C 23.503906 2.34375 22.613281 2.21875 21.6875 1.84375 C 20.757812 1.476562 20.050781 1.066406 19.5625 0.609375 C 19.351562 0.429688 19.203125 0.21875 19.109375 -0.03125 C 18.960938 -0.375 18.910156 -0.742188 18.953125 -1.140625 C 18.992188 -1.546875 19.035156 -1.925781 19.078125 -2.28125 C 19.296875 -3.59375 19.300781 -5.238281 19.09375 -7.21875 C 18.894531 -9.195312 18.710938 -10.800781 18.546875 -12.03125 C 18.179688 -13.28125 17.703125 -14.296875 17.109375 -15.078125 C 15.835938 -16.984375 14.488281 -17.957031 13.0625 -18 C 11.632812 -18.039062 10.742188 -17.207031 10.390625 -15.5 C 10.085938 -14.125 10.03125 -12.363281 10.21875 -10.21875 C 10.21875 -10.15625 10.226562 -10.082031 10.25 -10 C 10.507812 -8.21875 10.847656 -6.523438 11.265625 -4.921875 C 11.378906 -4.554688 11.550781 -4.003906 11.78125 -3.265625 C 12.050781 -2.398438 12.082031 -1.832031 11.875 -1.5625 C 11.8125 -1.488281 11.757812 -1.421875 11.71875 -1.359375 C 11.550781 -0.960938 11.265625 -0.644531 10.859375 -0.40625 C 10.179688 -0.0507812 9.410156 0.144531 8.546875 0.1875 C 7.890625 0.207031 7.234375 0.175781 6.578125 0.09375 C 6.296875 0.113281 6.019531 0.113281 5.75 0.09375 C 5.425781 0.0703125 5.128906 -0.0507812 4.859375 -0.28125 Z M 4.859375 -0.28125 "/></g></g></g><g fill="#000000" fill-opacity="1"><g transform="translate(218.329976, 303.67884)"><g/></g></g><g fill="#000000" fill-opacity="1"><g transform="translate(232.047042, 303.67884)"><g><path d="M 2.953125 -37.53125 C 3.378906 -38.863281 4.160156 -39.570312 5.296875 -39.65625 C 8.691406 -39.832031 12.078125 -39.753906 15.453125 -39.421875 C 18.828125 -39.097656 22.195312 -38.054688 25.5625 -36.296875 C 29.351562 -34.285156 32.378906 -31.703125 34.640625 -28.546875 C 36.566406 -25.835938 37.796875 -22.863281 38.328125 -19.625 C 38.660156 -17.3125 38.25 -15.035156 37.09375 -12.796875 C 35.945312 -10.554688 34.695312 -8.679688 33.34375 -7.171875 C 31.75 -5.460938 29.96875 -4.097656 28 -3.078125 C 26.007812 -2.046875 23.820312 -1.335938 21.4375 -0.953125 C 18.425781 -0.460938 15.34375 -0.367188 12.1875 -0.671875 C 9.039062 -0.984375 5.898438 -1.351562 2.765625 -1.78125 C 1.785156 -1.882812 1.132812 -2.164062 0.8125 -2.625 C 0.5 -3.09375 0.332031 -3.664062 0.3125 -4.34375 C 0.144531 -9.070312 0.210938 -14.734375 0.515625 -21.328125 C 0.828125 -27.921875 1.640625 -33.320312 2.953125 -37.53125 Z M 28.578125 -19.625 C 28.453125 -21.25 27.507812 -22.773438 25.75 -24.203125 C 25.09375 -24.679688 24.34375 -25.164062 23.5 -25.65625 C 21.039062 -26.925781 18.519531 -27.726562 15.9375 -28.0625 C 15.257812 -28.175781 14.613281 -28.222656 14 -28.203125 C 13.300781 -28.140625 12.707031 -27.882812 12.21875 -27.4375 C 11.988281 -27.226562 11.765625 -26.421875 11.546875 -25.015625 C 11.335938 -23.617188 11.160156 -22.085938 11.015625 -20.421875 C 10.867188 -18.765625 10.773438 -17.21875 10.734375 -15.78125 C 10.691406 -14.34375 10.734375 -13.492188 10.859375 -13.234375 C 10.921875 -13.066406 11.003906 -12.941406 11.109375 -12.859375 C 12.191406 -12.285156 13.398438 -11.851562 14.734375 -11.5625 C 16.046875 -11.28125 17.328125 -11.171875 18.578125 -11.234375 C 20.222656 -11.304688 22.015625 -11.628906 23.953125 -12.203125 C 25.890625 -12.785156 27.175781 -13.875 27.8125 -15.46875 C 28.363281 -16.820312 28.617188 -18.207031 28.578125 -19.625 Z M 28.578125 -19.625 "/></g></g></g><g fill="#000000" fill-opacity="1"><g transform="translate(273.859536, 303.67884)"><g><path d="M 1.359375 -15.140625 C 2.421875 -17.171875 3.578125 -18.789062 4.828125 -20 C 5.316406 -20.46875 5.632812 -20.765625 5.78125 -20.890625 C 7.769531 -22.648438 10.035156 -23.859375 12.578125 -24.515625 C 14.710938 -25.085938 16.796875 -25.097656 18.828125 -24.546875 C 19.785156 -24.242188 20.738281 -23.726562 21.6875 -23 C 22.632812 -22.269531 23.351562 -21.460938 23.84375 -20.578125 C 24.375 -19.554688 24.703125 -18.285156 24.828125 -16.765625 C 25.015625 -14.523438 24.816406 -12.503906 24.234375 -10.703125 C 23.847656 -9.597656 23.300781 -8.53125 22.59375 -7.5 C 21.882812 -6.476562 21.148438 -5.554688 20.390625 -4.734375 C 19.242188 -3.523438 17.945312 -2.488281 16.5 -1.625 C 15.050781 -0.769531 13.476562 -0.269531 11.78125 -0.125 C 10.019531 0 8.367188 -0.203125 6.828125 -0.734375 C 5.597656 -1.148438 4.46875 -1.722656 3.4375 -2.453125 C 2.414062 -3.191406 1.628906 -4.140625 1.078125 -5.296875 C 0.503906 -6.421875 0.1875 -7.734375 0.125 -9.234375 C 0.0390625 -11.378906 0.453125 -13.347656 1.359375 -15.140625 Z M 7.203125 -12.828125 C 6.679688 -11.222656 7.046875 -9.5625 8.296875 -7.84375 C 9.554688 -6.125 11.28125 -5.722656 13.46875 -6.640625 C 14.820312 -7.210938 15.804688 -8.019531 16.421875 -9.0625 C 17.035156 -10.113281 17.351562 -11.210938 17.375 -12.359375 C 17.414062 -14.960938 16.003906 -16.523438 13.140625 -17.046875 C 10.285156 -17.578125 8.304688 -16.171875 7.203125 -12.828125 Z M 7.203125 -12.828125 "/></g></g></g><g fill="#000000" fill-opacity="1"><g transform="translate(302.052885, 303.67884)"><g><path d="M 11.75 -9.296875 C 12.976562 -8.960938 14.09375 -9.082031 15.09375 -9.65625 C 16.101562 -10.226562 16.894531 -11.132812 17.46875 -12.375 C 18.039062 -13.625 18.164062 -14.972656 17.84375 -16.421875 C 17.53125 -17.710938 16.960938 -18.832031 16.140625 -19.78125 C 15.328125 -20.738281 14.210938 -21.3125 12.796875 -21.5 C 10.535156 -21.769531 9.039062 -20.710938 8.3125 -18.328125 C 7.59375 -15.953125 7.671875 -13.9375 8.546875 -12.28125 C 9.453125 -10.632812 10.519531 -9.640625 11.75 -9.296875 Z M 18.890625 -0.6875 C 19.128906 -2.238281 19.210938 -3.085938 19.140625 -3.234375 C 16.304688 -2.660156 13.8125 -2.5625 11.65625 -2.9375 C 9.5 -3.3125 7.675781 -4.191406 6.1875 -5.578125 C 4.707031 -6.960938 3.742188 -8.03125 3.296875 -8.78125 C 2.859375 -9.53125 2.394531 -10.359375 1.90625 -11.265625 C 0.925781 -13.109375 0.460938 -15.164062 0.515625 -17.4375 C 0.554688 -19 0.847656 -20.375 1.390625 -21.5625 C 1.941406 -22.769531 2.738281 -23.773438 3.78125 -24.578125 C 4.832031 -25.378906 5.984375 -26.003906 7.234375 -26.453125 C 8.847656 -27.046875 10.546875 -27.289062 12.328125 -27.1875 C 14.054688 -27.050781 15.671875 -26.550781 17.171875 -25.6875 C 17.847656 -25.300781 18.484375 -24.890625 19.078125 -24.453125 C 19.234375 -24.890625 19.414062 -25.351562 19.625 -25.84375 C 19.9375 -26.5 20.378906 -27.019531 20.953125 -27.40625 C 21.296875 -27.59375 21.863281 -27.757812 22.65625 -27.90625 C 23.445312 -28.0625 24.148438 -28.109375 24.765625 -28.046875 C 25.378906 -27.992188 26.003906 -27.835938 26.640625 -27.578125 C 27.273438 -27.316406 27.582031 -26.867188 27.5625 -26.234375 C 27.5625 -25.890625 27.503906 -25.535156 27.390625 -25.171875 C 27.273438 -24.816406 27.171875 -24.46875 27.078125 -24.125 C 26.171875 -20.976562 25.6875 -17.347656 25.625 -13.234375 C 25.539062 -9.535156 25.546875 -6.316406 25.640625 -3.578125 C 25.734375 -0.847656 25.289062 1.46875 24.3125 3.375 C 23.34375 5.289062 22.242188 6.550781 21.015625 7.15625 C 19.785156 7.757812 18.515625 8.203125 17.203125 8.484375 C 15.578125 8.835938 13.894531 8.960938 12.15625 8.859375 C 10.882812 8.796875 9.609375 8.613281 8.328125 8.3125 C 7.054688 8.019531 5.835938 7.472656 4.671875 6.671875 C 4.222656 6.367188 3.796875 6.03125 3.390625 5.65625 C 2.785156 5.101562 2 4.078125 1.03125 2.578125 C 0.0703125 1.085938 0.117188 0.113281 1.171875 -0.34375 C 4.140625 -1.46875 6.078125 -1.328125 6.984375 0.078125 C 7.890625 1.484375 9.035156 2.347656 10.421875 2.671875 C 12.171875 3.109375 13.96875 3.109375 15.8125 2.671875 C 17.632812 1.972656 18.660156 0.851562 18.890625 -0.6875 Z M 18.890625 -0.6875 "/></g></g></g></svg>